# xmcd CD database file
#
# Track frame offsets:
#	150
#	37038
#	59028
#	81648
#	109331
#	131646
#	150644
#	174152
#	200379
#	208500
#	237774
#	267279
#	294409
#
# Disc length: 4193 seconds
#
# Revision: 0
# Processed by: cddbd v1.5.2PL0 Copyright (c) Steve Scherf et al.
# Submitted via: CDex 1.91
#
DISCID=bf105f0d
DTITLE=Various Artist - jazzCD.no jazz from norway 2014 Disc 3
DYEAR=2014
DGENRE=Jazz
TTITLE0=Cortex - Nicotine
TTITLE1=Bly De Blyant - Mordechai
TTITLE2=Drawing An Arc - Sidsel Endresen and Stian Westerhus
TTITLE3=Zanussi 13 - Balance/Sinawi
TTITLE4=Crome Hill - Behind The Black Wall
TTITLE5=Skrap - Dunst Opening
TTITLE6=Hedvig Mollestad Trio - Lake Acid
TTITLE7=Honeyleap - Ebony Swing
TTITLE8=The Source - The Kid From Red Bank
TTITLE9=Grand General - The Fall of Troy
TTITLE10=Bushman's Revenge - As We Used To Sing
TTITLE11=Atomic - Available Exits
TTITLE12=Stian Westerhus - Shine
EXTD=YEAR: 2014
EXTT0=
EXTT1=
EXTT2=
EXTT3=
EXTT4=
EXTT5=
EXTT6=
EXTT7=
EXTT8=
EXTT9=
EXTT10=
EXTT11=
EXTT12=
PLAYORDER=
